# xmcd
#
# Track frame offsets: 
#        150
#        15315
#        28033
#        46567
#        63119
#        75313
#        91567
#        106647
#        120510
#        136281
#        143913
#        153983
#        167803
#        179890
#        194744
#        211275
#        223993
#        240279
#
# Disc length: 3304 seconds
#
# Revision: 1
# Processed by: cddbd v1.5.2PL0 Copyright (c) Steve Scherf et al.
# Submitted via: ExactAudioCopy v1.3
#
DISCID=e40ce612
DTITLE=Art (Spooky Tooth) - Supernatural Fairy Tales (2016 Remaster
DYEAR=1967
DGENRE=Classic Rock
TTITLE0=I Think I'm Going Weird
TTITLE1=What's That Sound (For What It's Worth)
TTITLE2=African Thing
TTITLE3=Room With A View
TTITLE4=Flying Anchors
TTITLE5=Supernatural Fairy Tale
TTITLE6=Love Is Real
TTITLE7=Come On Up
TTITLE8=Brothers, Dads And Mothers
TTITLE9=Talkin' To Myself
TTITLE10=Alive, Not Dead
TTITLE11=Rome Take Away Three
TTITLE12=Bonus - Love Is Real
TTITLE13=Bonus - I Think I'm Going Weird
TTITLE14=Bonus - Room With A View
TTITLE15=Bonus - Flying Anchors
TTITLE16=Bonus - Supernatural Fairy Tale
TTITLE17=Bonus - Talkin' To Myself
EXTD=
EXTT0=
EXTT1=
EXTT2=
EXTT3=
EXTT4=
EXTT5=
EXTT6=
EXTT7=
EXTT8=
EXTT9=
EXTT10=
EXTT11=
EXTT12=
EXTT13=
EXTT14=
EXTT15=
EXTT16=
EXTT17=
PLAYORDER=
